<svg width="40" height="40" viewBox="0 0 40 40" fill="none" xmlns="http://www.w3.org/2000/svg">
<path d="M24.2251 10H15.7749C12.5902 10 10 12.5902 10 15.7749V24.2251C10 27.4098 12.5902 30 15.7749 30H24.2251C27.4098 30 30 27.4098 30 24.2251V15.7608C30 12.5761 27.4098 10 24.2251 10ZM28.1599 24.3666C28.1599 26.4756 26.4473 28.2024 24.3241 28.2024H15.6759C13.5669 28.2024 11.8401 26.4897 11.8401 24.3666V15.7183C11.8401 13.6093 13.5527 11.8825 15.6759 11.8825H24.3241C26.4331 11.8825 28.1599 13.5952 28.1599 15.7183V24.3666Z" fill="#666666"/>
<path d="M20.0086 14.8594C17.1494 14.8594 14.8281 17.1807 14.8281 20.0398C14.8281 22.899 17.1494 25.2203 20.0086 25.2203C22.8678 25.2203 25.1891 22.899 25.1891 20.0398C25.1891 17.1807 22.8678 14.8594 20.0086 14.8594ZM20.0086 23.4086C18.1544 23.4086 16.6399 21.9082 16.6399 20.0398C16.6399 18.1856 18.1402 16.6853 20.0086 16.6853C21.8628 16.6853 23.3773 18.1856 23.3773 20.054C23.3632 21.9082 21.8628 23.4086 20.0086 23.4086Z" fill="#666666"/>
<path d="M25.3574 15.8594C26.0219 15.8594 26.5605 15.3207 26.5605 14.6562C26.5605 13.9918 26.0219 13.4531 25.3574 13.4531C24.6929 13.4531 24.1543 13.9918 24.1543 14.6562C24.1543 15.3207 24.6929 15.8594 25.3574 15.8594Z" fill="#666666"/>
</svg>
