<svg width="40" height="40" viewBox="0 0 40 40" fill="none" xmlns="http://www.w3.org/2000/svg">
<path fill-rule="evenodd" clip-rule="evenodd" d="M31.0608 15.1552C30.6236 13.5152 29.8075 12.8838 28.3036 12.6571C27.4408 12.5371 23.2865 12.3828 19.9875 12.3828C16.6894 12.3828 12.5351 12.5371 11.6722 12.6571C10.1703 12.8838 9.35031 13.5181 8.91888 15.1552C8.77031 15.7019 8.57031 18.7181 8.57031 19.8657V20.119C8.57031 21.2695 8.77031 24.2838 8.91888 24.8323C9.35031 26.4695 10.1703 27.1 11.6722 27.3266C12.5351 27.4476 16.6941 27.599 19.9951 27.599L19.9808 27.6019C23.2817 27.6019 27.4398 27.4476 28.3036 27.3266C29.8075 27.1 30.6236 26.4695 31.0608 24.8323C31.2046 24.2838 31.4056 21.2695 31.4056 20.119V19.8657C31.4056 18.7181 31.2046 15.7019 31.0608 15.1552ZM17.2494 22.7428V17.2409L22.7246 19.9285L17.2494 22.7428Z" fill="#666666"/>
</svg>
